# xmcd CD database file
#
# Track frame offsets:
#	150
#	27247
#	47787
#	67193
#	90878
#	116848
#	137425
#	160443
#	180701
#	202617
#
# Disc length: 2824 seconds
#
# Revision: 0
# Processed by: cddbd v1.5PL3 Copyright (c) Steve Scherf et al.
# Submitted via: CDex 1.50beta9
#
DISCID=810b060a
DTITLE=Diverse System - Hello,Boss.
DYEAR=2003
DGENRE=サウンドトラック (一般)
TTITLE0=P8107
TTITLE1=giudecca -flashback 2 rave-
TTITLE2=Deep Clear Eyes (G3remix)
TTITLE3=The legend of MAX -stab add ambience mix-
TTITLE4=MAX Infinity
TTITLE5=Schlagwerk (Murder Equipment)
TTITLE6=sweeTBreeze 333
TTITLE7=LoGical Dash!! 12
TTITLE8=Underpass
TTITLE9=Bonus Track
EXTD=YEAR: 2003
EXTT0=
EXTT1=
EXTT2=
EXTT3=
EXTT4=
EXTT5=
EXTT6=
EXTT7=
EXTT8=
EXTT9=
PLAYORDER=
